<svg width="52" height="50" viewBox="0 0 52 50" fill="none" xmlns="http://www.w3.org/2000/svg">
<path d="M19.8184 22.9167C21.4819 22.9167 23.108 22.4279 24.4912 21.5122C25.8743 20.5966 26.9523 19.2951 27.5889 17.7724C28.2255 16.2496 28.3921 14.5741 28.0675 12.9576C27.743 11.3411 26.942 9.85622 25.7657 8.69078C24.5894 7.52534 23.0908 6.73167 21.4593 6.41013C19.8278 6.08858 18.1366 6.25361 16.5998 6.88434C15.0629 7.51507 13.7493 8.58317 12.8252 9.95358C11.901 11.324 11.4077 12.9352 11.4077 14.5833C11.4077 16.7935 12.2938 18.9131 13.8711 20.4759C15.4485 22.0387 17.5878 22.9167 19.8184 22.9167ZM19.8184 10.4167C20.6502 10.4167 21.4632 10.661 22.1548 11.1189C22.8464 11.5767 23.3854 12.2275 23.7037 12.9888C24.022 13.7502 24.1052 14.588 23.943 15.3962C23.7807 16.2045 23.3802 16.9469 22.7921 17.5296C22.2039 18.1123 21.4546 18.5092 20.6388 18.6699C19.8231 18.8307 18.9775 18.7482 18.2091 18.4328C17.4407 18.1175 16.7839 17.5834 16.3218 16.8982C15.8597 16.213 15.6131 15.4074 15.6131 14.5833C15.6131 13.4783 16.0561 12.4185 16.8448 11.6371C17.6334 10.8557 18.7031 10.4167 19.8184 10.4167ZM36.6399 27.0833C37.8875 27.0833 39.1071 26.7168 40.1444 26.03C41.1818 25.3433 41.9903 24.3671 42.4677 23.2251C42.9452 22.0831 43.0701 20.8264 42.8267 19.614C42.5833 18.4016 41.9825 17.288 41.1003 16.4139C40.2181 15.5398 39.0941 14.9446 37.8705 14.7034C36.6469 14.4623 35.3785 14.586 34.2259 15.0591C33.0732 15.5321 32.088 16.3332 31.3949 17.361C30.7018 18.3888 30.3318 19.5972 30.3318 20.8333C30.3318 22.4909 30.9964 24.0807 32.1794 25.2528C33.3624 26.4249 34.9669 27.0833 36.6399 27.0833ZM36.6399 18.75C37.0557 18.75 37.4623 18.8722 37.808 19.1011C38.1538 19.33 38.4233 19.6554 38.5825 20.0361C38.7416 20.4168 38.7833 20.8356 38.7021 21.2398C38.621 21.6439 38.4207 22.0151 38.1267 22.3065C37.8326 22.5978 37.4579 22.7963 37.0501 22.8766C36.6422 22.957 36.2194 22.9158 35.8352 22.7581C35.451 22.6004 35.1226 22.3334 34.8915 21.9908C34.6605 21.6482 34.5372 21.2454 34.5372 20.8333C34.5372 20.2808 34.7587 19.7509 35.153 19.3602C35.5474 18.9695 36.0822 18.75 36.6399 18.75ZM36.6399 29.1667C34.3097 29.1692 32.0465 29.9387 30.2057 31.3542C28.1461 29.3216 25.5252 27.9387 22.6735 27.3801C19.8218 26.8214 16.8669 27.1119 14.1816 28.2149C11.4963 29.3179 9.20076 31.184 7.58449 33.578C5.96822 35.9719 5.1036 38.7865 5.09967 41.6667C5.09967 42.2192 5.3212 42.7491 5.71553 43.1398C6.10986 43.5305 6.64468 43.75 7.20235 43.75C7.76001 43.75 8.29484 43.5305 8.68917 43.1398C9.0835 42.7491 9.30503 42.2192 9.30503 41.6667C9.30503 38.904 10.4127 36.2545 12.3843 34.301C14.356 32.3475 17.0301 31.25 19.8184 31.25C22.6067 31.25 25.2809 32.3475 27.2525 34.301C29.2242 36.2545 30.3318 38.904 30.3318 41.6667C30.3318 42.2192 30.5533 42.7491 30.9477 43.1398C31.342 43.5305 31.8768 43.75 32.4345 43.75C32.9922 43.75 33.527 43.5305 33.9213 43.1398C34.3156 42.7491 34.5372 42.2192 34.5372 41.6667C34.5422 39.2259 33.9199 36.8241 32.7289 34.6875C33.6581 33.96 34.7753 33.5063 35.9525 33.3785C37.1298 33.2506 38.3196 33.4537 39.3859 33.9645C40.4521 34.4753 41.3516 35.2732 41.9816 36.2669C42.6115 37.2606 42.9464 38.4099 42.9479 39.5833C42.9479 40.1359 43.1694 40.6658 43.5637 41.0565C43.9581 41.4472 44.4929 41.6667 45.0506 41.6667C45.6082 41.6667 46.1431 41.4472 46.5374 41.0565C46.9317 40.6658 47.1532 40.1359 47.1532 39.5833C47.1532 36.8207 46.0456 34.1711 44.0739 32.2176C42.1023 30.2641 39.4282 29.1667 36.6399 29.1667Z" fill="#4578F9"/>
</svg>
