<svg width="32" height="26" viewBox="0 0 32 26" fill="none" xmlns="http://www.w3.org/2000/svg">
<path d="M30 17.3705H28.0082C27.9012 13.6531 26.1038 10.3591 23.3538 8.22431L24.1786 7.3968C24.6096 7.5633 25.0642 7.65174 25.52 7.65174C26.4712 7.65174 27.4224 7.28944 28.1465 6.56531C29.5947 5.11707 29.5947 2.76111 28.1465 1.31287C26.6987 -0.134884 24.3428 -0.135864 22.894 1.31287C21.825 2.3819 21.5509 3.94403 22.0601 5.2721L20.6907 6.64607C19.2485 6.03285 17.6633 5.69276 16 5.69276C14.3367 5.69276 12.7515 6.03285 11.3093 6.64607L9.93988 5.2721C10.4491 3.94404 10.175 2.3819 9.10596 1.31287C7.65674 -0.136354 5.30078 -0.135374 3.85352 1.31287C2.40528 2.76111 2.40528 5.11707 3.85352 6.56531C4.57764 7.28943 5.52881 7.65174 6.47998 7.65174C6.93579 7.65174 7.39044 7.5633 7.82141 7.3968L8.64618 8.22431C5.89624 10.3591 4.09882 13.6531 3.99176 17.3705H2C1.17139 17.3705 0.5 18.0419 0.5 18.8705C0.5 19.6991 1.17139 20.3705 2 20.3705H30C30.8286 20.3705 31.5 19.6991 31.5 18.8705C31.5 18.0419 30.8286 17.3705 30 17.3705ZM25.0151 3.43397C25.1543 3.29481 25.3374 3.22547 25.52 3.22547C25.7031 3.22547 25.8862 3.29481 26.0254 3.43397C26.3037 3.71278 26.3037 4.16542 26.0254 4.44422C25.7466 4.72156 25.293 4.72254 25.0151 4.44422C24.7368 4.16541 24.7368 3.71278 25.0151 3.43397ZM6.98486 4.44422C6.70605 4.72254 6.25244 4.72156 5.97461 4.44422C5.69629 4.16541 5.69629 3.71277 5.97461 3.43397C6.11377 3.29481 6.29688 3.22547 6.47998 3.22547C6.6626 3.22547 6.8457 3.29481 6.98486 3.43397C7.26318 3.71278 7.26318 4.16541 6.98486 4.44422ZM6.98096 17.3705C7.16406 12.5541 11.1397 8.69276 16 8.69276C20.8603 8.69276 24.8359 12.5541 25.019 17.3705H6.98096ZM25.4287 25.7738C26.2573 25.7738 26.9287 25.1024 26.9287 24.2738C26.9287 23.4452 26.2573 22.7738 25.4287 22.7738H6.57129C5.74268 22.7738 5.07129 23.4452 5.07129 24.2738C5.07129 25.1024 5.74268 25.7738 6.57129 25.7738H25.4287Z" fill="#D8A353"/>
</svg>
