<svg width="30" height="30" viewBox="0 0 30 30" fill="none" xmlns="http://www.w3.org/2000/svg">
<path d="M28.3326 16.6681C27.8917 16.6665 27.4691 16.4908 27.1566 16.1792L15.0192 4.02497L2.88172 16.1792C2.72936 16.343 2.54564 16.4743 2.3415 16.5654C2.13736 16.6565 1.91699 16.7054 1.69354 16.7094C1.47009 16.7133 1.24814 16.6722 1.04092 16.5884C0.833695 16.5045 0.645456 16.3798 0.487428 16.2215C0.3294 16.0633 0.20482 15.8748 0.121121 15.6673C0.037421 15.4598 -0.00368353 15.2375 0.000258994 15.0138C0.00420152 14.79 0.0531103 14.5693 0.144068 14.3649C0.235025 14.1605 0.366168 13.9765 0.529673 13.8239L13.8431 0.492016C13.9969 0.336154 14.18 0.212407 14.3819 0.127949C14.5838 0.0434899 14.8004 0 15.0192 0C15.238 0 15.4546 0.0434899 15.6564 0.127949C15.8583 0.212407 16.0414 0.336154 16.1952 0.492016L29.5087 13.8239C29.6643 13.9779 29.7879 14.1613 29.8722 14.3634C29.9566 14.5656 30 14.7825 30 15.0016C30 15.2207 29.9566 15.4376 29.8722 15.6397C29.7879 15.8419 29.6643 16.0253 29.5087 16.1792C29.1962 16.4908 28.7736 16.6665 28.3326 16.6681Z" fill="#595BD4"/>
<path d="M15.0192 30C14.5778 30 14.1545 29.8244 13.8424 29.5119C13.5303 29.1993 13.355 28.7755 13.355 28.3335V2.78063C13.355 2.33864 13.5303 1.91477 13.8424 1.60224C14.1545 1.28971 14.5778 1.11414 15.0192 1.11414C15.4605 1.11414 15.8838 1.28971 16.1959 1.60224C16.508 1.91477 16.6833 2.33864 16.6833 2.78063V28.3335C16.6833 28.7755 16.508 29.1993 16.1959 29.5119C15.8838 29.8244 15.4605 30 15.0192 30Z" fill="#595BD4"/>
</svg>
