<svg width="71" height="70" viewBox="0 0 71 70" fill="none" xmlns="http://www.w3.org/2000/svg">
<path d="M70.9568 7.1729C70.9031 6.98486 70.7991 6.81453 70.6556 6.67981C70.5121 6.54509 70.3345 6.45095 70.1414 6.40728L65.5597 5.36275L64.5002 0.845558C64.4555 0.655624 64.36 0.48095 64.2238 0.339659C64.0875 0.198368 63.9153 0.0956077 63.7251 0.0420411C63.535 -0.0115254 63.3337 -0.0139471 63.1423 0.0350275C62.9509 0.0840021 62.7762 0.182589 62.6365 0.320558L58.1823 4.70649C57.9927 4.89378 57.8784 5.14248 57.8606 5.4065L57.4335 11.8268L34.7135 34.2268C34.0029 33.8914 33.1949 33.8146 32.4324 34.0099C31.6698 34.2052 31.0019 34.6601 30.5468 35.2941C30.0916 35.9281 29.8785 36.7004 29.9452 37.4743C30.0119 38.2483 30.354 38.9741 30.9111 39.5233C31.4682 40.0726 32.2043 40.4099 32.9894 40.4756C33.7744 40.5413 34.5577 40.3313 35.2007 39.8825C35.8438 39.4338 36.3052 38.7753 36.5033 38.0235C36.7014 37.2717 36.6235 36.4751 36.2833 35.7745L57.5888 14.769L59.0033 13.3745L65.5153 12.9534C65.7831 12.9358 66.0354 12.8231 66.2253 12.6362L70.6739 8.24478C70.8148 8.1079 70.9154 7.93599 70.9652 7.74729C71.015 7.55858 71.0121 7.36011 70.9568 7.1729ZM33.2824 38.2792C33.063 38.2792 32.8485 38.215 32.6661 38.0948C32.4836 37.9746 32.3415 37.8038 32.2575 37.604C32.1735 37.4041 32.1516 37.1842 32.1944 36.972C32.2372 36.7599 32.3428 36.565 32.498 36.412C32.6531 36.259 32.8508 36.1549 33.066 36.1127C33.2812 36.0705 33.5042 36.0921 33.707 36.1749C33.9097 36.2577 34.0829 36.3979 34.2048 36.5777C34.3267 36.7576 34.3918 36.9691 34.3918 37.1854C34.3909 37.4752 34.2738 37.7529 34.0659 37.9578C33.858 38.1628 33.5764 38.2783 33.2824 38.2792ZM64.9551 10.7987L59.7022 11.1377L60.0461 5.95884L62.7862 3.26275L63.5517 6.52212C63.5973 6.72252 63.6997 6.90603 63.847 7.05126C63.9944 7.19649 64.1805 7.29747 64.3837 7.34243L67.6897 8.09712L64.9551 10.7987Z" fill="#5052CB"/>
<path d="M8.87624 37.1855C8.87585 32.7062 10.1437 28.3157 12.5372 24.5084C14.9306 20.701 18.3545 17.628 22.4235 15.6352C26.4924 13.6425 31.0448 12.8092 35.5681 13.2291C40.0914 13.649 44.406 15.3055 48.0261 18.0121L49.5959 16.4644C46.6111 14.1789 43.1669 12.5463 39.4923 11.6753C35.8178 10.8042 31.9972 10.7148 28.2849 11.4128C24.5725 12.1109 21.0536 13.5804 17.9621 15.7237C14.8707 17.867 12.2777 20.6348 10.3557 23.843C8.43371 27.0512 7.22679 30.6262 6.81525 34.33C6.40371 38.0339 6.797 41.7817 7.96895 45.324C9.1409 48.8664 11.0646 52.122 13.6121 54.8743C16.1596 57.6266 19.2724 59.8124 22.7434 61.2863V58.8964C18.5904 56.9354 15.0846 53.8563 12.6308 50.0147C10.1771 46.173 8.87547 41.7254 8.87624 37.1855Z" fill="#5052CB"/>
<path d="M18.4058 48.8832C17.5016 47.7676 16.0706 46.9582 15.4382 45.6566C14.8114 44.3824 15.0555 42.7746 14.7282 41.3637C14.412 39.991 13.4802 38.6512 13.4802 37.1855C13.4802 35.7199 14.412 34.3801 14.7282 33.0074C15.0555 31.5965 14.8114 29.9887 15.4382 28.7144C16.0706 27.4129 17.5016 26.6035 18.4058 25.4879C19.3155 24.3723 19.7981 22.8137 20.9352 21.9223C22.0667 21.0308 23.7086 20.9051 25.0288 20.2816C26.3212 19.6637 27.4416 18.4715 28.8727 18.1488C29.1641 18.0852 29.4618 18.054 29.7602 18.0558C30.9029 18.0558 32.1066 18.4277 33.2825 18.4277C34.4584 18.4277 35.6621 18.0558 36.8048 18.0558C37.1032 18.054 37.4009 18.0852 37.6923 18.1488C39.1234 18.4715 40.2438 19.6637 41.5418 20.2816C42.507 20.741 43.6496 20.9324 44.637 21.3535L46.4341 19.5816C43.9839 17.8018 41.1884 16.5382 38.2215 15.8694C35.2547 15.2006 32.1799 15.141 29.1887 15.6942C26.1974 16.2474 23.3536 17.4017 20.8343 19.0851C18.315 20.7685 16.174 22.9451 14.5447 25.4795C12.9153 28.0138 11.8324 30.8516 11.3633 33.8163C10.8942 36.781 11.049 39.8092 11.8181 42.7124C12.5871 45.6156 13.954 48.3317 15.8335 50.6916C17.7131 53.0516 20.0652 55.0049 22.7434 56.4301V53.3129C22.0923 53.136 21.4794 52.8432 20.9352 52.4488C19.7981 51.5574 19.3155 49.9988 18.4058 48.8832Z" fill="#5052CB"/>
<path d="M4.4388 37.1854C4.43719 31.8408 5.96369 26.604 8.84318 22.0758C11.7227 17.5476 15.8385 13.9113 20.7186 11.5841C25.5986 9.25699 31.0452 8.33321 36.4335 8.91877C41.8218 9.50434 46.9335 11.5755 51.1823 14.8947L54.3496 11.7776C50.5712 8.7328 46.1599 6.54439 41.4283 5.36734C36.6966 4.19029 31.7603 4.05339 26.9691 4.96635C22.1778 5.87931 17.6487 7.81979 13.7027 10.6503C9.75665 13.4809 6.49016 17.1323 4.13459 21.3458C1.77902 25.5594 0.391992 30.2321 0.071752 35.0329C-0.248488 39.8337 0.505895 44.6453 2.28147 49.1267C4.05704 53.6081 6.81036 57.6498 10.3464 60.9655C13.8825 64.2812 18.1148 66.7897 22.7435 68.3135V63.6541C17.3482 61.5662 12.7162 57.9241 9.45105 53.2028C6.18595 48.4814 4.4393 42.8997 4.4388 37.1854ZM43.8216 58.8963V61.2862C47.5551 59.7035 50.8709 57.2982 53.5143 54.2549C56.1577 51.2117 58.0584 47.6115 59.0702 43.731C60.0821 39.8504 60.1782 35.7929 59.3512 31.87C58.5242 27.9471 56.7961 24.2634 54.2997 21.1018L52.7299 22.6494C54.9178 25.4944 56.4363 28.7838 57.1753 32.279C57.9142 35.7742 57.8552 39.3877 57.0024 42.8576C56.1496 46.3275 54.5244 49.5669 52.2447 52.341C49.9649 55.115 47.0877 57.3542 43.8216 58.8963Z" fill="#5052CB"/>
<path d="M48.9857 26.3463C49.7789 27.0791 50.6664 27.7682 51.1268 28.7143C51.7536 29.9885 51.5095 31.5963 51.8368 33.0073C52.1529 34.3799 53.0848 35.7198 53.0848 37.1854C53.0848 38.651 52.1529 39.9909 51.8368 41.3635C51.5095 42.7745 51.7536 44.3823 51.1268 45.6565C50.4944 46.9581 49.0633 47.7674 48.1592 48.8831C47.2495 49.9987 46.7669 51.5573 45.6298 52.4487C45.0856 52.8431 44.4727 53.1359 43.8215 53.3127V56.4299C46.6162 54.9451 49.0547 52.8857 50.972 50.391C52.8892 47.8963 54.2405 45.0246 54.9342 41.9703C55.628 38.916 55.648 35.7504 54.993 32.6878C54.3381 29.6252 53.0233 26.7371 51.1379 24.219L48.9857 26.3463Z" fill="#5052CB"/>
<path d="M44.2431 50.7424C44.6701 50.3096 45.0223 49.8108 45.2859 49.2659C45.9197 48.0245 46.8074 46.9259 47.8929 46.0393C48.3772 45.6671 48.7953 45.218 49.1299 44.7104C49.317 44.1416 49.4124 43.5474 49.4128 42.9494C49.4427 42.2528 49.5299 41.5596 49.6735 40.8768C49.8398 40.2142 50.0625 39.5666 50.3391 38.9409C50.6132 38.3889 50.7913 37.7955 50.866 37.1854C50.7913 36.5753 50.6131 35.9819 50.3391 35.4299C50.0625 34.8042 49.8398 34.1566 49.6735 33.494C49.5299 32.8112 49.4427 32.118 49.4128 31.4213C49.4124 30.8234 49.317 30.2292 49.1299 29.6604C48.7944 29.1551 48.3786 28.7064 47.8985 28.3315C47.7431 28.1948 47.5767 28.0471 47.4159 27.894L44.0878 31.1752L45.2526 31.3448C45.6617 31.4042 46.0458 31.5752 46.3615 31.8385C46.6772 32.1017 46.9121 32.4467 47.0396 32.8345C47.167 33.2223 47.182 33.6376 47.0829 34.0333C46.9838 34.4291 46.7744 34.7897 46.4785 35.0744L41.4918 39.876L42.6678 46.6573C42.7234 46.9714 42.7086 47.2937 42.6244 47.6016C42.5402 47.9094 42.3886 48.1954 42.1803 48.4393C41.972 48.6833 41.712 48.8793 41.4187 49.0136C41.1253 49.1478 40.8057 49.2172 40.4823 49.2166C40.1226 49.2178 39.7682 49.1313 39.4506 48.9651L33.2824 45.7659L27.1143 48.9651C26.7967 49.1313 26.4423 49.2178 26.0826 49.2166C25.7592 49.2172 25.4396 49.1478 25.1462 49.0136C24.8529 48.8793 24.5929 48.6833 24.3846 48.4393C24.1763 48.1954 24.0247 47.9094 23.9405 47.6016C23.8563 47.2937 23.8415 46.9714 23.8971 46.6573L25.0731 39.876L20.0864 35.0744C19.7905 34.7897 19.5811 34.4291 19.482 34.0333C19.3828 33.6376 19.3979 33.2223 19.5253 32.8345C19.6528 32.4467 19.8876 32.1017 20.2034 31.8385C20.5191 31.5752 20.9032 31.4042 21.3123 31.3448L28.2071 30.3549L31.2911 24.1862C31.4747 23.8201 31.7585 23.5119 32.1104 23.2965C32.4623 23.081 32.8682 22.9668 33.2824 22.9668C33.6967 22.9668 34.1026 23.081 34.4545 23.2965C34.8064 23.5119 35.0902 23.8201 35.2738 24.1862L37.4149 28.4682L42.9007 23.0651C42.7898 23.0268 42.6789 22.994 42.5624 22.9612C41.8819 22.7778 41.2178 22.54 40.5766 22.2502C39.9573 21.9373 39.3638 21.5771 38.8016 21.1729C38.3206 20.7909 37.7789 20.4897 37.1985 20.2815C37.0693 20.253 36.9371 20.2401 36.8047 20.2432C36.3391 20.2622 35.8756 20.3152 35.418 20.4018C34.7129 20.5276 33.9988 20.5989 33.2824 20.6151C32.566 20.5989 31.852 20.5276 31.1469 20.4018C30.6893 20.3152 30.2258 20.2622 29.7602 20.2432C29.6278 20.2398 29.4955 20.2527 29.3664 20.2815C28.7859 20.4897 28.2443 20.7909 27.7633 21.1729C27.2011 21.5771 26.6076 21.9373 25.9883 22.2502C25.3471 22.54 24.683 22.7778 24.0025 22.9612C23.409 23.0914 22.8413 23.3168 22.3218 23.6284C21.8948 24.0611 21.5426 24.5599 21.279 25.1049C20.9482 25.7174 20.5679 26.3026 20.1419 26.8549C19.693 27.3853 19.2014 27.8791 18.672 28.3315C18.1891 28.7052 17.7713 29.154 17.435 29.6604C17.2479 30.2292 17.1524 30.8234 17.1521 31.4213C17.1222 32.118 17.035 32.8112 16.8914 33.494C16.7251 34.1566 16.5024 34.8042 16.2258 35.4299C15.9517 35.9819 15.7736 36.5753 15.6989 37.1854C15.7736 37.7955 15.9517 38.3889 16.2258 38.9409C16.5024 39.5666 16.7251 40.2142 16.8914 40.8768C17.035 41.5596 17.1222 42.2528 17.1521 42.9494C17.1524 43.5474 17.2479 44.1416 17.435 44.7104C17.7705 45.2156 18.1863 45.6643 18.6664 46.0393C19.1978 46.4915 19.6912 46.9853 20.1419 47.5159C20.566 48.0695 20.9462 48.6546 21.279 49.2659C21.5426 49.8108 21.8948 50.3096 22.3218 50.7424C22.4511 50.8404 22.5928 50.9212 22.7434 50.983C23.1527 51.1534 23.5734 51.296 24.0025 51.4096C24.3076 51.4971 24.6293 51.5955 24.9621 51.7049V68.9041C24.9613 69.0938 25.0107 69.2804 25.1053 69.4455C25.1999 69.6106 25.3366 69.7485 25.5018 69.8457C25.6669 69.9429 25.855 69.9959 26.0473 69.9996C26.2396 70.0032 26.4296 69.9574 26.5985 69.8666L33.2824 66.3174L39.9664 69.8666C40.1353 69.9574 40.3253 70.0032 40.5176 69.9996C40.7099 69.9959 40.8979 69.9429 41.0631 69.8457C41.2283 69.7485 41.365 69.6106 41.4596 69.4455C41.5542 69.2804 41.6036 69.0938 41.6028 68.9041V51.7049C41.9356 51.5955 42.2573 51.4971 42.5624 51.4096C42.9915 51.296 43.4122 51.1534 43.8215 50.983C43.972 50.9212 44.1138 50.8404 44.2431 50.7424ZM39.384 67.0721L33.8094 64.1135C33.6475 64.0274 33.4664 63.9822 33.2824 63.9822C33.0985 63.9822 32.9174 64.0274 32.7555 64.1135L27.1809 67.0721V52.8096C27.3806 52.9409 27.5803 53.0721 27.7633 53.1979C28.2443 53.5799 28.7859 53.881 29.3664 54.0893C29.4956 54.1178 29.6278 54.1306 29.7602 54.1276C30.2258 54.1085 30.6893 54.0555 31.1469 53.969C31.852 53.8432 32.566 53.7719 33.2824 53.7557C33.9988 53.7719 34.7129 53.8432 35.418 53.969C35.8756 54.0555 36.3391 54.1085 36.8047 54.1276C36.9371 54.1309 37.0694 54.1181 37.1985 54.0893C37.7789 53.881 38.3206 53.5799 38.8016 53.1979C38.9846 53.0721 39.1843 52.9409 39.384 52.8096V67.0721Z" fill="#595BD4"/>
<path d="M55.8915 19.5377C58.6905 23.0199 60.6225 27.1005 61.5325 31.452C62.4425 35.8035 62.3051 40.3047 61.1315 44.5944C59.9579 48.8841 57.7806 52.8428 54.7744 56.1528C51.7683 59.4629 48.017 62.032 43.8215 63.6541V68.3135C48.9338 66.6294 53.5549 63.7468 57.2877 59.9133C61.0205 56.0797 63.7535 51.41 65.2517 46.3052C66.7499 41.2005 66.9685 35.8134 65.8888 30.607C64.8092 25.4005 62.4634 20.5304 59.0533 16.415L55.8915 19.5377ZM33.2825 31.7166C33.5442 31.7158 33.8056 31.734 34.0646 31.7713L35.7564 30.1033L33.2825 25.1541L29.6825 32.3564L21.634 33.5104L27.4583 39.1158L26.0826 47.0291L33.2825 43.2939L40.4823 47.0291L39.1067 39.1158L44.9309 33.5104L42.1297 33.1057H42.1242L38.7739 36.4143C38.8117 36.6696 38.8302 36.9273 38.8293 37.1854C38.8293 38.267 38.504 39.3243 37.8945 40.2236C37.285 41.123 36.4187 41.8239 35.4052 42.2378C34.3916 42.6517 33.2763 42.76 32.2003 42.549C31.1243 42.338 30.136 41.8172 29.3602 41.0523C28.5845 40.2875 28.0562 39.3131 27.8422 38.2523C27.6281 37.1914 27.738 36.0918 28.1578 35.0926C28.5777 34.0933 29.2886 33.2392 30.2008 32.6383C31.113 32.0373 32.1854 31.7166 33.2825 31.7166Z" fill="#5052CB"/>
</svg>
