<svg width="51" height="50" viewBox="0 0 51 50" fill="none" xmlns="http://www.w3.org/2000/svg">
<path d="M25.5 0C11.4165 0 0 11.1926 0 25C0 38.8074 11.4165 50 25.5 50C39.5835 50 51 38.8074 51 25C51 11.1926 39.5835 0 25.5 0ZM25.5 45.4545C13.9775 45.4545 4.63636 36.2966 4.63636 25C4.63636 13.7034 13.9775 4.54545 25.5 4.54545C37.0225 4.54545 46.3636 13.7034 46.3636 25C46.3636 36.2966 37.0225 45.4545 25.5 45.4545ZM25.5 9.09091C16.5379 9.09091 9.27273 16.2136 9.27273 25C9.27273 33.7864 16.5379 40.9091 25.5 40.9091C34.4621 40.9091 41.7273 33.7864 41.7273 25C41.7273 16.2136 34.4621 9.09091 25.5 9.09091ZM25.5 36.3636C19.0983 36.3636 13.9091 31.2761 13.9091 25C13.9091 18.7239 19.0983 13.6364 25.5 13.6364C31.9017 13.6364 37.0909 18.7239 37.0909 25C37.0909 31.2761 31.9017 36.3636 25.5 36.3636ZM25.5 18.1818C21.6594 18.1818 18.5455 21.2347 18.5455 25C18.5455 28.7653 21.6594 31.8182 25.5 31.8182C29.3406 31.8182 32.4545 28.7653 32.4545 25C32.4545 21.2347 29.3406 18.1818 25.5 18.1818ZM25.5 27.2727C24.8852 27.2727 24.2955 27.0333 23.8608 26.6071C23.4261 26.1808 23.1818 25.6028 23.1818 25C23.1818 24.3972 23.4261 23.8192 23.8608 23.3929C24.2955 22.9667 24.8852 22.7273 25.5 22.7273C26.1148 22.7273 26.7045 22.9667 27.1392 23.3929C27.5739 23.8192 27.8182 24.3972 27.8182 25C27.8182 25.6028 27.5739 26.1808 27.1392 26.6071C26.7045 27.0333 26.1148 27.2727 25.5 27.2727Z" fill="#4578F9"/>
</svg>
