<svg width="23" height="24" viewBox="0 0 23 24" fill="none" xmlns="http://www.w3.org/2000/svg">
<path d="M10.5417 3.99998H3.83341C3.32508 3.99998 2.83757 4.2107 2.47813 4.58577C2.11868 4.96084 1.91675 5.46955 1.91675 5.99998V20C1.91675 20.5304 2.11868 21.0391 2.47813 21.4142C2.83757 21.7893 3.32508 22 3.83341 22H17.2501C17.7584 22 18.2459 21.7893 18.6054 21.4142C18.9648 21.0391 19.1667 20.5304 19.1667 20V13M17.7292 2.49998C18.1105 2.10216 18.6276 1.87866 19.1667 1.87866C19.7059 1.87866 20.223 2.10216 20.6042 2.49998C20.9855 2.89781 21.1997 3.43737 21.1997 3.99998C21.1997 4.56259 20.9855 5.10216 20.6042 5.49998L11.5001 15L7.66675 16L8.62508 12L17.7292 2.49998Z" stroke="#1E1E1E" stroke-width="2" stroke-linecap="round" stroke-linejoin="round"/>
</svg>
