<svg width="60" height="60" viewBox="0 0 60 60" fill="none" xmlns="http://www.w3.org/2000/svg">
<path d="M28.0541 0.731928C28.5671 -0.243979 29.8689 -0.243973 30.3819 0.731928L59.9179 58.5126C60.4243 59.4762 58.4636 60 57.4378 60H48.407L46.1387 55.6973L29.0841 21.6479L15.7687 48.2315L36.5341 51.1354C37.6812 51.2959 38.1124 52.8467 37.2368 53.6633L32.4153 58.1611C32.1723 58.3878 31.8618 58.5126 31.5406 58.5126H1.33894C0.466552 58.5126 -0.172561 57.6255 0.0416434 56.712L1.00029 52.5746C1.04167 52.3982 1.40103 51.801 1.40103 51.327L1.99426 50.438L1.94681 50.4077L28.0541 0.731928Z" fill="url(#paint0_linear_332_28)"/>
<defs>
<linearGradient id="paint0_linear_332_28" x1="32.2286" y1="1.48264" x2="32.2286" y2="69.8612" gradientUnits="userSpaceOnUse">
<stop offset="0.317308" stop-color="#5052CB"/>
<stop offset="0.538462" stop-color="#3C3D98"/>
<stop offset="0.759615" stop-color="#282965"/>
</linearGradient>
</defs>
</svg>
