<svg width="50" height="50" viewBox="0 0 50 50" fill="none" xmlns="http://www.w3.org/2000/svg">
<path d="M49.6037 38.501L42.0829 26.4887C43.6219 23.8745 44.4236 20.9437 44.4141 17.9671C44.4141 13.202 42.3674 8.63194 38.7242 5.26245C35.0811 1.89296 30.1399 0 24.9877 0C19.8356 0 14.8944 1.89296 11.2513 5.26245C7.60812 8.63194 5.56142 13.202 5.56142 17.9671C5.55187 20.9437 6.35361 23.8745 7.89258 26.4887L0.371818 38.501C0.127771 38.8919 -0.000480844 39.3355 1.35471e-06 39.7869C0.000483553 40.2383 0.129682 40.6817 0.374564 41.0722C0.619445 41.4627 0.971348 41.7865 1.39477 42.0111C1.81819 42.2356 2.29815 42.3529 2.78623 42.3511H10.751L14.8028 48.6653C14.9394 48.8745 15.1076 49.0647 15.3023 49.2299C15.8168 49.6886 16.5027 49.946 17.2172 49.9486H17.6057C18.0247 49.8956 18.425 49.7547 18.7762 49.5367C19.1273 49.3188 19.4199 49.0295 19.6316 48.6909L24.9877 40.1694L30.3439 48.7679C30.5587 49.1017 30.8527 49.386 31.2036 49.5994C31.5546 49.8128 31.9533 49.9498 32.3698 50H32.7583C33.4824 50.004 34.1795 49.7461 34.7009 49.2813C34.8876 49.1254 35.0467 48.9436 35.1727 48.7423L39.2245 42.4281H47.1893C47.6783 42.4299 48.1591 42.3121 48.5831 42.0868C49.0071 41.8614 49.3592 41.5364 49.6037 41.1447C49.863 40.7455 50 40.2886 50 39.8229C50 39.3571 49.863 38.9002 49.6037 38.501ZM17.1895 42.4281L14.7195 38.6037C14.4763 38.2242 14.1315 37.9092 13.7183 37.6889C13.3051 37.4686 12.8375 37.3505 12.3606 37.346H7.55956L11.5281 30.9805C14.2609 33.416 17.7051 35.0578 21.4355 35.7033L17.1895 42.4281ZM24.9877 30.8008C22.2433 30.8008 19.5606 30.0481 17.2787 28.6379C14.9968 27.2278 13.2183 25.2234 12.168 22.8784C11.1178 20.5333 10.843 17.9529 11.3784 15.4634C11.9138 12.9739 13.2354 10.6872 15.176 8.89236C17.1166 7.09754 19.589 5.87525 22.2807 5.38006C24.9724 4.88487 27.7623 5.13902 30.2978 6.11037C32.8333 7.08172 35.0005 8.72664 36.5252 10.8371C38.0499 12.9476 38.8637 15.4289 38.8637 17.9671C38.8637 21.3708 37.4018 24.6351 34.7995 27.0419C32.1973 29.4487 28.6679 30.8008 24.9877 30.8008ZM37.6149 37.346C37.138 37.3505 36.6704 37.4686 36.2572 37.6889C35.844 37.9092 35.4992 38.2242 35.256 38.6037L32.786 42.4281L28.5677 35.6263C32.2851 34.9676 35.7165 33.3273 38.4474 30.9035L42.4159 37.269L37.6149 37.346Z" fill="#4578F9"/>
</svg>
