<svg width="71" height="70" viewBox="0 0 71 70" fill="none" xmlns="http://www.w3.org/2000/svg">
<path fill-rule="evenodd" clip-rule="evenodd" d="M35.5 0C26.0848 0 17.0553 3.68749 10.3977 10.2513C3.74017 16.815 0 25.7174 0 35C0 44.2826 3.74017 53.185 10.3977 59.7487C17.0553 66.3125 26.0848 70 35.5 70C44.9152 70 53.9447 66.3125 60.6023 59.7487C67.2598 53.185 71 44.2826 71 35C71 25.7174 67.2598 16.815 60.6023 10.2513C53.9447 3.68749 44.9152 0 35.5 0ZM35.6338 12.705C36.5432 12.7104 36.9992 13.1923 37.3815 13.6042C37.7638 14.0135 38.0915 14.4927 38.4274 15.0446C39.0992 16.1485 39.7818 17.5377 40.4482 18.9485C41.1172 20.3538 41.7644 21.7808 42.3215 22.89C42.6 23.4446 42.8567 23.9185 43.0642 24.2523C43.1844 24.4462 43.3018 24.5835 43.3564 24.6508C43.4383 24.6804 43.6104 24.7531 43.837 24.8096C44.2193 24.9038 44.7573 25.0088 45.3772 25.1085C46.617 25.3077 48.1953 25.4988 49.7628 25.7142C51.3275 25.9296 52.8759 26.1585 54.1457 26.4681C54.782 26.6188 55.3418 26.7912 55.8524 27.0281C56.3631 27.2677 56.972 27.5504 57.2451 28.4065C57.5182 29.26 57.1905 29.8335 56.9147 30.3181C56.6362 30.8027 56.273 31.255 55.8415 31.7396C54.984 32.7088 53.8508 33.7777 52.6957 34.8358C51.5378 35.8965 50.3581 36.9438 49.457 37.8081C49.0091 38.2388 48.6295 38.6265 48.3701 38.9227C48.2172 39.095 48.1189 39.2512 48.0697 39.3212C48.0643 39.4073 48.0506 39.5904 48.067 39.8165C48.0943 40.2069 48.1626 40.7427 48.2582 41.3512C48.4493 42.5735 48.7497 44.1081 49.0255 45.6373C49.3013 47.1692 49.5553 48.6877 49.6508 49.9719C49.6973 50.6127 49.7136 51.1835 49.6399 51.7381C49.5662 52.29 49.4761 52.9415 48.7333 53.4612C47.9905 53.9808 47.3352 53.8569 46.7808 53.7465C46.1942 53.6145 45.6225 53.4252 45.0741 53.1812C43.8725 52.6804 42.488 51.9508 41.1063 51.1969C39.7218 50.4431 38.3482 49.6677 37.234 49.0915C36.7724 48.8475 36.3005 48.6229 35.8195 48.4185C35.6065 48.3296 35.4235 48.2946 35.3389 48.2677C35.257 48.2865 35.0767 48.3242 34.861 48.4077C34.3771 48.6067 33.9015 48.825 33.4355 49.0619C32.3159 49.6165 30.9232 50.3758 29.5278 51.1081C28.1324 51.8377 26.737 52.5458 25.5272 53.0304C24.921 53.2727 24.3694 53.4612 23.815 53.5635C23.258 53.6631 22.5944 53.7842 21.8625 53.2512C21.1307 52.7208 21.0515 52.0665 20.9887 51.5119C20.9325 50.9243 20.9371 50.3325 21.0023 49.7458C21.1198 48.4642 21.401 46.9431 21.7014 45.4165C22.0018 43.89 22.3295 42.3662 22.5398 41.1465C22.6463 40.5381 22.72 40.005 22.7528 39.6173C22.7719 39.3885 22.761 39.2081 22.7582 39.1219C22.7118 39.0492 22.6135 38.8931 22.466 38.7181C22.124 38.327 21.766 37.9497 21.3928 37.5873C20.5081 36.7096 19.3475 35.6408 18.2088 34.5638C17.07 33.4869 15.9586 32.4019 15.1148 31.4192C14.7159 30.9753 14.3637 30.4927 14.0635 29.9788C13.7931 29.4888 13.4763 28.9073 13.7658 28.0592C14.0553 27.2085 14.6642 26.9338 15.1803 26.7023C15.6937 26.4708 16.259 26.3146 16.8953 26.1719C18.1705 25.8838 19.7216 25.6765 21.2918 25.4881C22.8593 25.2996 24.4431 25.13 25.6883 24.9496C26.3082 24.8608 26.8462 24.7665 27.234 24.6777C27.3969 24.6404 27.5566 24.5909 27.7118 24.5296C27.7665 24.465 27.8866 24.325 28.0122 24.1312C28.2225 23.8 28.4874 23.3288 28.7768 22.7796C29.3503 21.6812 30.0248 20.265 30.7157 18.8677C31.4066 17.4677 32.1111 16.0946 32.802 15.0015C33.1461 14.455 33.4792 13.9785 33.867 13.5773C34.2575 13.1735 34.7217 12.705 35.6338 12.705ZM35.6065 15.7635C35.4563 15.9573 35.3143 16.1188 35.1204 16.4231C34.5388 17.3438 33.8533 18.6712 33.1734 20.0442C32.4962 21.4173 31.8189 22.8388 31.2072 24.01C30.9357 24.5408 30.6414 25.06 30.3252 25.5662C30.0412 26.0104 29.8337 26.3685 29.3148 26.7346C28.796 27.0981 28.3836 27.1762 27.862 27.2973C27.3432 27.4158 26.7424 27.5181 26.0816 27.6123C24.7544 27.8008 23.1678 27.9677 21.6277 28.1535C20.0848 28.3392 18.5829 28.5465 17.5097 28.7888C17.1547 28.8696 16.9499 28.9531 16.7178 29.0312C16.8543 29.2331 16.9717 29.4081 17.2066 29.6827C17.9166 30.5119 18.9898 31.5673 20.1067 32.6281C21.2263 33.6888 22.3896 34.7577 23.3344 35.6946C23.8068 36.1631 24.2247 36.5938 24.566 36.9977C24.9073 37.4015 25.1941 37.7031 25.3852 38.3035C25.5791 38.9012 25.5218 39.3131 25.4781 39.8381C25.4216 40.4282 25.3396 41.0156 25.2323 41.5988C25.0057 42.8992 24.6807 44.4338 24.3858 45.9335C24.1031 47.2714 23.8844 48.6218 23.7304 49.98C23.6976 50.3381 23.7085 50.5481 23.714 50.7904C23.9516 50.7231 24.1591 50.6719 24.4977 50.5373C25.5163 50.1308 26.8708 49.455 28.2389 48.7335C29.6125 48.0173 31.0052 47.2581 32.204 46.6631C32.8047 46.3669 33.3509 46.1085 33.8479 45.9092C34.3422 45.7181 34.7217 45.5538 35.3607 45.5538C35.9997 45.5592 36.382 45.7342 36.8763 45.9362C37.3678 46.1408 37.9085 46.4046 38.5038 46.7115C39.689 47.3227 41.0762 48.1035 42.4362 48.8465C43.7933 49.5869 45.1314 50.2869 46.1445 50.7123C46.4804 50.8469 46.6907 50.9062 46.9255 50.9762C46.931 50.7338 46.9528 50.5185 46.9255 50.1604C46.8436 49.0808 46.6033 47.6081 46.333 46.1058C46.0599 44.6035 45.7595 43.0608 45.5547 41.7577C45.4581 41.1722 45.387 40.583 45.3417 39.9915C45.3062 39.4665 45.2543 39.0546 45.4564 38.4596C45.6612 37.8646 45.9479 37.5658 46.2947 37.1673C46.6443 36.7688 47.0675 36.3435 47.5509 35.8831C48.5067 34.9623 49.6918 33.9123 50.8278 32.8704C51.9638 31.8285 53.0534 30.7892 53.777 29.9735C54.0173 29.7042 54.1375 29.5265 54.2795 29.3273C54.0474 29.2465 53.8426 29.1658 53.4876 29.0796C52.4226 28.8185 50.9207 28.5869 49.3832 28.3742C47.8458 28.1642 46.2647 27.9785 44.9403 27.7658C44.344 27.6733 43.7518 27.5566 43.1653 27.4158C42.6464 27.2865 42.2313 27.2058 41.718 26.8342C41.2046 26.46 41.0052 26.0992 40.7267 25.6496C40.4203 25.1376 40.1361 24.613 39.8747 24.0773C39.2794 22.8954 38.6267 21.4658 37.9686 20.0819C37.3132 18.6981 36.6469 17.3573 36.0817 16.4285C35.8932 16.1188 35.754 15.9573 35.6065 15.7635Z" fill="#0A2472"/>
</svg>
