<svg width="36" height="32" viewBox="0 0 36 32" fill="none" xmlns="http://www.w3.org/2000/svg">
<g clip-path="url(#clip0_286_255)">
<path d="M28.5 13.3333V15.9999C28.5 18.4753 27.3938 20.8492 25.4246 22.5996C23.4555 24.3499 20.7848 25.3333 18 25.3333M18 25.3333C15.2152 25.3333 12.5445 24.3499 10.5754 22.5996C8.60625 20.8492 7.5 18.4753 7.5 15.9999V13.3333M18 25.3333V30.6666M12 30.6666H24M18 1.33325C16.8065 1.33325 15.6619 1.75468 14.818 2.50482C13.9741 3.25497 13.5 4.27239 13.5 5.33325V15.9999C13.5 17.0608 13.9741 18.0782 14.818 18.8283C15.6619 19.5785 16.8065 19.9999 18 19.9999C19.1935 19.9999 20.3381 19.5785 21.182 18.8283C22.0259 18.0782 22.5 17.0608 22.5 15.9999V5.33325C22.5 4.27239 22.0259 3.25497 21.182 2.50482C20.3381 1.75468 19.1935 1.33325 18 1.33325Z" stroke="#0A2472" stroke-width="4" stroke-linecap="round" stroke-linejoin="round"/>
</g>
<defs>
<clipPath id="clip0_286_255">
<rect width="36" height="32" fill="white"/>
</clipPath>
</defs>
</svg>
