<svg width="70" height="60" viewBox="0 0 70 60" fill="none" xmlns="http://www.w3.org/2000/svg">
<path d="M37.8914 32.7249C42.7238 32.7249 46.6412 36.3877 46.6412 40.9061L46.6367 44.9878C47.2367 55.0046 38.9854 60 23.684 60C8.43204 60 0 55.07 0 45.1307V40.9061C0 36.3877 3.91744 32.7249 8.74984 32.7249H37.8914ZM61.2278 32.7249C66.0602 32.7249 69.9776 36.3877 69.9776 40.9061L69.9732 43.7781C70.5007 52.7636 63.2098 57.2685 49.8834 57.2685C48.0744 57.2685 46.3737 57.1861 44.7855 57.0212C47.9162 54.318 49.591 50.6497 49.5853 46.0143L49.5487 44.8353L49.5578 40.9061C49.5578 37.6468 48.0291 34.7215 45.6055 32.7226L61.2278 32.7249ZM23.3329 0C31.3882 0 37.9183 6.10575 37.9183 13.6376C37.9183 21.1694 31.3882 27.2751 23.3329 27.2751C15.2776 27.2751 8.74747 21.1694 8.74747 13.6376C8.74747 6.10575 15.2776 0 23.3329 0ZM52.499 5.45414C58.9422 5.45414 64.1655 10.338 64.1655 16.3624C64.1655 22.3869 58.9422 27.2707 52.499 27.2707C46.0558 27.2707 40.8326 22.3869 40.8326 16.3624C40.8326 10.338 46.0558 5.45414 52.499 5.45414Z" fill="#0A2472"/>
</svg>
