<svg width="50" height="50" viewBox="0 0 50 50" fill="none" xmlns="http://www.w3.org/2000/svg">
<path fill-rule="evenodd" clip-rule="evenodd" d="M22.5 9.34753V15H20C12.0725 15 5.3775 20.27 3.225 27.5H0V37.5H3.225C5.3775 44.73 12.0725 50 20 50C23.27 50 26.73 50 30 50C37.9275 50 44.6225 44.73 46.775 37.5H50V27.5H46.775C44.6225 20.27 37.9275 15 30 15H27.5V9.36249C29.0075 8.49749 30.0225 6.87251 30.0225 5.01251C30.0225 2.24501 27.7775 0 25.0125 0C22.245 0 20 2.24501 20 5.01251C20 6.86251 21.005 8.48003 22.5 9.34753ZM7.5 32.5C7.5 25.5975 13.0975 20 20 20C23.27 20 26.73 20 30 20C36.9025 20 42.5 25.5975 42.5 32.5C42.5 32.51 42.5 32.5225 42.5 32.5325C42.5 39.4025 36.9025 45 30 45C26.73 45 23.27 45 20 45C13.0975 45 7.5 39.4025 7.5 32.5ZM30 30V35H35V30H30ZM15 30V35H20V30H15Z" fill="#4578F9"/>
</svg>
