<svg width="70" height="70" viewBox="0 0 70 70" fill="none" xmlns="http://www.w3.org/2000/svg">
<path d="M26.25 0C23.0282 0 20.4164 2.68086 20.4164 5.95688V22.3405H5.83362C2.61187 22.3405 0 25.0214 0 28.2974V52.1276C0 55.4045 2.61187 58.0854 5.83362 58.0854V70L20.0524 58.0854H43.75C46.9726 58.0854 49.5836 55.4045 49.5836 52.1276V35.7448H49.9476L64.1664 47.6595V35.7448C67.3899 35.7448 70 33.064 70 29.7871V5.95688C70 2.68086 67.3899 0 64.1664 0H26.25ZM13.125 37.2336C13.6996 37.2337 14.2686 37.3494 14.7995 37.5741C15.3304 37.7988 15.8127 38.1281 16.219 38.5432C16.6252 38.9582 16.9474 39.451 17.1672 39.9932C17.387 40.5355 17.5001 41.1166 17.5 41.7035C17.4999 42.2904 17.3866 42.8715 17.1666 43.4136C16.9466 43.9558 16.6241 44.4484 16.2177 44.8633C15.8113 45.2782 15.3288 45.6073 14.7979 45.8318C14.2669 46.0562 13.6979 46.1717 13.1232 46.1716C11.9627 46.1714 10.8498 45.7003 10.0293 44.862C9.20882 44.0238 8.74802 42.887 8.74825 41.7017C8.74848 40.5165 9.20973 39.3798 10.0305 38.5419C10.8513 37.704 11.9644 37.2334 13.125 37.2336ZM24.7914 37.2336C25.9519 37.2337 27.0649 37.7047 27.8855 38.5429C28.706 39.381 29.1669 40.5178 29.1668 41.703C29.1667 42.8883 28.7056 44.025 27.8848 44.863C27.0641 45.701 25.9511 46.1717 24.7905 46.1716C24.2159 46.1715 23.6468 46.0559 23.116 45.8312C22.5851 45.6066 22.1027 45.2774 21.6964 44.8623C20.8759 44.0242 20.4149 42.8874 20.4151 41.7022C20.4152 40.5169 20.8763 39.3802 21.697 38.5422C22.5178 37.7042 23.6308 37.2335 24.7914 37.2336ZM36.4586 37.2336C37.0333 37.2337 37.6023 37.3494 38.1331 37.5741C38.664 37.7988 39.1463 38.1281 39.5526 38.5432C39.9588 38.9582 40.2811 39.451 40.5009 39.9932C40.7207 40.5355 40.8337 41.1166 40.8336 41.7035C40.8335 42.2904 40.7202 42.8715 40.5002 43.4136C40.2802 43.9558 39.9578 44.4484 39.5513 44.8633C39.1449 45.2782 38.6625 45.6073 38.1315 45.8318C37.6006 46.0562 37.0315 46.1717 36.4569 46.1716C35.2963 46.1714 34.1834 45.7003 33.3629 44.862C32.5424 44.0238 32.0816 42.887 32.0819 41.7017C32.0821 40.5165 32.5434 39.3798 33.3642 38.5419C34.185 37.704 35.2981 37.2334 36.4586 37.2336Z" fill="#0A2472"/>
</svg>
