<svg width="26" height="24" viewBox="0 0 26 24" fill="none" xmlns="http://www.w3.org/2000/svg">
<path d="M3.25 6H5.41667M5.41667 6H22.75M5.41667 6V20C5.41667 20.5304 5.64494 21.0391 6.05127 21.4142C6.4576 21.7893 7.0087 22 7.58333 22H18.4167C18.9913 22 19.5424 21.7893 19.9487 21.4142C20.3551 21.0391 20.5833 20.5304 20.5833 20V6M8.66667 6V4C8.66667 3.46957 8.89494 2.96086 9.30127 2.58579C9.7076 2.21071 10.2587 2 10.8333 2H15.1667C15.7413 2 16.2924 2.21071 16.6987 2.58579C17.1051 2.96086 17.3333 3.46957 17.3333 4V6M10.8333 11V17M15.1667 11V17" stroke="#1E1E1E" stroke-width="2" stroke-linecap="round" stroke-linejoin="round"/>
</svg>
