<svg width="37" height="33" viewBox="0 0 37 33" fill="none" xmlns="http://www.w3.org/2000/svg">
<path d="M34.4875 18.2186C33.9611 18.2169 33.4566 18.0249 33.0836 17.6843L18.5944 4.39939L4.10513 17.6843C3.92325 17.8632 3.70393 18.0068 3.46023 18.1063C3.21654 18.2059 2.95347 18.2594 2.68673 18.2638C2.41998 18.2681 2.15502 18.2231 1.90765 18.1315C1.66027 18.0399 1.43556 17.9035 1.24691 17.7305C1.05826 17.5576 0.909546 17.3515 0.809628 17.1247C0.709711 16.8979 0.660642 16.655 0.665348 16.4104C0.670055 16.1658 0.72844 15.9246 0.837022 15.7012C0.945604 15.4777 1.10216 15.2766 1.29734 15.1099L17.1905 0.537785C17.374 0.367425 17.5926 0.232166 17.8336 0.139851C18.0746 0.0475355 18.3332 0 18.5944 0C18.8555 0 19.1141 0.0475355 19.3551 0.139851C19.5961 0.232166 19.8147 0.367425 19.9983 0.537785L35.8914 15.1099C36.0772 15.2782 36.2247 15.4786 36.3254 15.6996C36.4261 15.9205 36.4779 16.1576 36.4779 16.3971C36.4779 16.6366 36.4261 16.8736 36.3254 17.0946C36.2247 17.3156 36.0772 17.516 35.8914 17.6843C35.5184 18.0249 35.0139 18.2169 34.4875 18.2186Z" fill="#0A2472"/>
<path d="M18.5946 32.7907C18.0677 32.7907 17.5624 32.5987 17.1898 32.2571C16.8172 31.9155 16.6079 31.4522 16.6079 30.9691V3.03929C16.6079 2.55619 16.8172 2.09288 17.1898 1.75128C17.5624 1.40968 18.0677 1.21777 18.5946 1.21777C19.1214 1.21777 19.6268 1.40968 19.9993 1.75128C20.3719 2.09288 20.5812 2.55619 20.5812 3.03929V30.9691C20.5812 31.4522 20.3719 31.9155 19.9993 32.2571C19.6268 32.5987 19.1214 32.7907 18.5946 32.7907Z" fill="#0A2472"/>
</svg>
