<svg width="38" height="34" viewBox="0 0 38 34" fill="none" xmlns="http://www.w3.org/2000/svg">
<path d="M19 0C8.50725 0 0 7.61175 0 17C0 26.3883 8.50725 34 19 34C29.4928 34 38 26.3883 38 17C38 7.61175 29.4928 0 19 0ZM27.8018 12.2974L18.7008 24.7435C18.6984 24.7456 18.6936 24.7478 18.6936 24.7499C18.6461 24.8136 18.62 24.8859 18.5606 24.9454C18.4775 25.0261 18.3706 25.0686 18.2756 25.1303C18.2519 25.1451 18.2281 25.1621 18.202 25.177C18.0548 25.2599 17.9028 25.3151 17.7365 25.3512C17.6819 25.364 17.632 25.3768 17.575 25.3853C17.4427 25.4015 17.3087 25.403 17.176 25.3895C17.0823 25.3842 16.9893 25.3714 16.8981 25.3512C16.8041 25.3259 16.7127 25.2932 16.625 25.2535C16.549 25.2216 16.4683 25.2131 16.397 25.1727C16.3448 25.143 16.3162 25.0963 16.2711 25.0601C16.2521 25.0452 16.2284 25.041 16.2094 25.0261L10.9108 20.6423C10.5967 20.3724 10.4135 20.0031 10.4005 19.6137C10.3875 19.2243 10.5457 18.8459 10.8412 18.5597C11.1368 18.2736 11.5459 18.1026 11.9808 18.0836C12.4157 18.0645 12.8416 18.1989 13.167 18.4578L17.0026 21.6325L25.0183 10.6696C25.2595 10.3394 25.6375 10.1084 26.0691 10.0275C26.5007 9.94658 26.9505 10.0224 27.3196 10.2382C27.6887 10.4541 27.9469 10.7923 28.0373 11.1785C28.1277 11.5646 28.043 11.9671 27.8018 12.2974Z" fill="#595BD4"/>
</svg>
